<?xml version="1.0" encoding="UTF-8" standalone="no"?>
<svg
   viewBox="0 0 816 1056"
   height="1056"
   width="816"
   xml:space="preserve"
   id="svg2"
   version="1.1"
   sodipodi:docname="Constan.svg"
   inkscape:version="1.2.1 (9c6d41e410, 2022-07-14)"
   xmlns:inkscape="http://www.inkscape.org/namespaces/inkscape"
   xmlns:sodipodi="http://sodipodi.sourceforge.net/DTD/sodipodi-0.dtd"
   xmlns="http://www.w3.org/2000/svg"
   xmlns:svg="http://www.w3.org/2000/svg"
   xmlns:rdf="http://www.w3.org/1999/02/22-rdf-syntax-ns#"
   xmlns:cc="http://creativecommons.org/ns#"
   xmlns:dc="http://purl.org/dc/elements/1.1/"><sodipodi:namedview
     id="namedview16"
     pagecolor="#505050"
     bordercolor="#eeeeee"
     borderopacity="1"
     inkscape:showpageshadow="0"
     inkscape:pageopacity="0"
     inkscape:pagecheckerboard="0"
     inkscape:deskcolor="#505050"
     showgrid="false"
     inkscape:zoom="0.74621212"
     inkscape:cx="408.06091"
     inkscape:cy="528"
     inkscape:window-width="1920"
     inkscape:window-height="986"
     inkscape:window-x="-11"
     inkscape:window-y="-11"
     inkscape:window-maximized="1"
     inkscape:current-layer="g10" /><metadata
     id="metadata8"><rdf:RDF><cc:Work
         rdf:about=""><dc:format>image/svg+xml</dc:format><dc:type
           rdf:resource="http://purl.org/dc/dcmitype/StillImage" /></cc:Work></rdf:RDF></metadata><defs
     id="defs6"><clipPath
       id="clipPath18"
       clipPathUnits="userSpaceOnUse"><path
         style="clip-rule:evenodd"
         id="path16"
         d="M 9.12e-6,0 H 612.00001 V 792 H 9.12e-6 Z" /></clipPath><clipPath
       id="clipPath30"
       clipPathUnits="userSpaceOnUse"><path
         style="clip-rule:evenodd"
         id="path28"
         d="M 9.12e-6,0 H 612.00001 V 792 H 9.12e-6 Z" /></clipPath></defs><g
     transform="matrix(1.3333333,0,0,-1.3333333,0,1056)"
     id="g10"><g
       id="g12"
       transform="matrix(7.7768104,0,0,11.07168,-694.36066,-7478.9687)"><g
         clip-path="url(#clipPath18)"
         id="g14"><g
   aria-label="Constan Fernando"
   transform="matrix(1,0,0,-1,75.024,711)"
   id="text22"
   style="font-size:10.56px;font-family:'Courier 10 Pitch';-inkscape-font-specification:CourierNewPSMT"><path
     d="m 6.9609378,-0.55687502 q -0.2835938,0.12375 -0.515625,0.23203126 Q 6.2184377,-0.21656251 5.8471877,-0.09796875 5.5326565,0 5.1614065,0.06703125 4.7953127,0.13921876 4.3518752,0.13921876 q -0.8353126,0 -1.5210938,-0.23203126 -0.6806251,-0.23718751 -1.1859376,-0.73734378 -0.495,-0.48984382 -0.77343752,-1.24265632 -0.27843751,-0.7579688 -0.27843751,-1.7582813 0,-0.94875 0.26812501,-1.6964063 0.26812502,-0.7476563 0.77343752,-1.2632813 0.4898438,-0.5001563 1.1807813,-0.7631251 0.6960938,-0.2629687 1.5417188,-0.2629687 0.61875,0 1.2323438,0.1495312 0.61875,0.1495313 1.3715626,0.5259376 v 1.2117188 H 6.883594 Q 6.2493752,-6.4607815 5.625469,-6.7031253 5.0015627,-6.945469 4.2900002,-6.945469 q -0.5826563,0 -1.0518751,0.1907812 -0.4640625,0.185625 -0.8301563,0.5826563 -0.3557812,0.3867188 -0.556875,0.9796875 -0.1959375,0.5878126 -0.1959375,1.3612501 0,0.8095313 0.2165625,1.3921876 0.2217188,0.5826562 0.5671875,0.94875 0.3609376,0.3815625 0.8404688,0.56718751 0.4846875,0.18046876 1.0209376,0.18046876 0.7373438,0 1.381875,-0.25265626 Q 6.326719,-1.2478125 6.8887503,-1.7531251 h 0.072188 z"
     id="path176" /><path
     d="m 12.198656,-2.8771876 q 0,1.4076563 -0.721875,2.22234382 -0.721875,0.81468754 -1.9335934,0.81468754 -1.2220313,0 -1.9439063,-0.81468754 -0.7167188,-0.81468752 -0.7167188,-2.22234382 0,-1.4076563 0.7167188,-2.2223439 0.721875,-0.8198437 1.9439063,-0.8198437 1.2117184,0 1.9335934,0.8198437 0.721875,0.8146876 0.721875,2.2223439 z m -1.000312,0 q 0,-1.1189063 -0.438281,-1.6603126 -0.438282,-0.5465625 -1.2168754,-0.5465625 -0.7889063,0 -1.2271876,0.5465625 -0.433125,0.5414063 -0.433125,1.6603126 0,1.0828125 0.4382813,1.6448438 0.4382813,0.55687502 1.2220313,0.55687502 0.7734374,0 1.2117184,-0.55171872 0.443438,-0.5568751 0.443438,-1.6500001 z"
     id="path178" /><path
     d="m 18.484084,0 h -0.969375 v -3.2793751 q 0,-0.3970313 -0.04641,-0.7425001 -0.04641,-0.350625 -0.170156,-0.5465625 -0.128907,-0.2165625 -0.371251,-0.3196875 -0.242343,-0.1082812 -0.629062,-0.1082812 -0.397031,0 -0.830156,0.1959375 -0.433125,0.1959375 -0.830157,0.5001562 V 0 h -0.969375 v -5.7595315 h 0.969375 v 0.639375 q 0.45375,-0.3764062 0.938438,-0.5878125 0.484687,-0.2114062 0.995156,-0.2114062 0.933282,0 1.423125,0.5620312 0.489844,0.5620313 0.489844,1.6190626 z"
     id="path180" /><path
     d="m 24.023794,-1.6603126 q 0,0.78890632 -0.654844,1.29421884 -0.649687,0.50531252 -1.778906,0.50531252 -0.639375,0 -1.175625,-0.14953126 -0.531094,-0.15468751 -0.892031,-0.33515626 V -1.4334376 h 0.05156 q 0.458906,0.3454688 1.020938,0.55171881 0.562031,0.20109376 1.077656,0.20109376 0.639375,0 1.000313,-0.20625001 0.360937,-0.20624996 0.360937,-0.64968756 0,-0.3403125 -0.195937,-0.515625 -0.195938,-0.1753125 -0.752813,-0.2990625 -0.20625,-0.046406 -0.541406,-0.1082812 -0.33,-0.061875 -0.603281,-0.1340626 -0.757969,-0.2010937 -1.077657,-0.5878125 -0.314531,-0.391875 -0.314531,-0.9590625 0,-0.3557813 0.144375,-0.6703125 0.149531,-0.3145313 0.448594,-0.5620313 0.28875,-0.2423438 0.732187,-0.3815625 0.448594,-0.144375 1.000313,-0.144375 0.515625,0 1.041562,0.1289062 0.531094,0.12375 0.881719,0.3042188 v 1.0364063 h -0.05156 q -0.37125,-0.2732813 -0.902344,-0.4589063 -0.531094,-0.1907813 -1.041563,-0.1907813 -0.531093,0 -0.897187,0.2062501 -0.366094,0.2010937 -0.366094,0.6032812 0,0.3557813 0.221719,0.5362501 0.216562,0.1804687 0.70125,0.2939062 0.268125,0.061875 0.598125,0.12375 0.335156,0.061875 0.556875,0.1134375 0.675469,0.1546875 1.041562,0.5310938 0.366094,0.3815625 0.366094,1.010625 z"
     id="path182" /><path
     d="M 29.235732,-0.0515625 Q 28.962451,0.020625 28.637607,0.06703125 28.31792,0.1134375 28.065263,0.1134375 q -0.881719,0 -1.340625,-0.47437501 -0.458906,-0.47437502 -0.458906,-1.52109379 v -3.0628126 h -0.654844 v -0.8146876 h 0.654844 v -1.6551563 h 0.969375 v 1.6551563 h 2.000625 v 0.8146876 h -2.000625 v 2.6245313 q 0,0.45375 0.02062,0.7115625 0.02063,0.2526563 0.144375,0.4743751 0.113437,0.20624996 0.309375,0.30421872 0.201094,0.0928125 0.608438,0.0928125 0.237187,0 0.495,-0.0670312 0.257812,-0.0721875 0.37125,-0.11859376 h 0.05156 z"
     id="path184" /><path
     d="m 36.982811,0 h -0.964218 v -0.61359377 q -0.128907,0.0876562 -0.350625,0.24750001 -0.216563,0.1546875 -0.422813,0.24750001 Q 35.002811,0 34.68828,0.07734375 q -0.314531,0.08250001 -0.737344,0.08250001 -0.778594,0 -1.32,-0.51562502 -0.541406,-0.51562502 -0.541406,-1.31484384 0,-0.6548437 0.278437,-1.0570313 0.283594,-0.4073437 0.804375,-0.639375 0.525938,-0.2320312 1.263282,-0.3145312 0.737344,-0.0825 1.582969,-0.1237501 v -0.1495312 q 0,-0.33 -0.118594,-0.5465625 -0.113438,-0.2165625 -0.33,-0.3403125 -0.20625,-0.1185938 -0.495,-0.1598438 -0.28875,-0.04125 -0.603282,-0.04125 -0.381562,0 -0.850781,0.103125 -0.469219,0.097969 -0.969375,0.28875 h -0.05156 v -0.9848438 q 0.283593,-0.077344 0.819843,-0.1701562 0.53625,-0.092812 1.057032,-0.092812 0.608437,0 1.057031,0.103125 0.45375,0.097969 0.78375,0.3403125 0.324844,0.2371875 0.495,0.6135938 0.170156,0.3764062 0.170156,0.9332812 z m -0.964218,-1.4179688 v -1.6035938 q -0.443438,0.025781 -1.046719,0.077344 -0.598125,0.051563 -0.94875,0.1495313 -0.417657,0.1185937 -0.675469,0.37125 -0.257813,0.2475 -0.257813,0.6857813 0,0.495 0.299063,0.74765626 0.299062,0.24750001 0.912656,0.24750001 0.510469,0 0.933282,-0.19593751 0.422812,-0.20109376 0.78375,-0.47953126 z"
     id="path186" /><path
     d="m 43.659122,0 h -0.969375 v -3.2793751 q 0,-0.3970313 -0.04641,-0.7425001 -0.04641,-0.350625 -0.170156,-0.5465625 -0.128906,-0.2165625 -0.37125,-0.3196875 -0.242344,-0.1082812 -0.629063,-0.1082812 -0.397031,0 -0.830156,0.1959375 -0.433125,0.1959375 -0.830156,0.5001562 V 0 h -0.969375 v -5.7595315 h 0.969375 v 0.639375 q 0.45375,-0.3764062 0.938437,-0.5878125 0.484688,-0.2114062 0.995157,-0.2114062 0.933281,0 1.423125,0.5620312 0.489843,0.5620313 0.489843,1.6190626 z"
     id="path188" /><path
     d="m 56.422202,-6.7701565 h -3.882656 v 2.1656251 h 3.336094 v 0.9075 H 52.539546 V 0 h -1.020938 v -7.6776566 h 4.903594 z"
     id="path190" /><path
     d="m 62.524439,-2.7792189 h -4.243593 q 0,0.5310938 0.159843,0.9281251 0.159844,0.391875 0.438282,0.6445313 0.268125,0.24749996 0.634218,0.37124997 0.37125,0.12375 0.814688,0.12375 0.587812,0 1.180781,-0.23203126 0.598125,-0.23718751 0.850781,-0.46406251 h 0.05156 v 1.05703129 q -0.489844,0.20625 -1.000313,0.34546876 -0.510468,0.13921876 -1.0725,0.13921876 -1.433437,0 -2.237812,-0.77343754 -0.804375,-0.77859377 -0.804375,-2.20687507 0,-1.4128126 0.768281,-2.2429689 0.773438,-0.8301562 2.031563,-0.8301562 1.165312,0 1.794375,0.680625 0.634218,0.680625 0.634218,1.9335938 z m -0.943593,-0.7425 q -0.0052,-0.763125 -0.386719,-1.1807813 -0.376406,-0.4176563 -1.149844,-0.4176563 -0.778594,0 -1.242656,0.4589063 -0.458906,0.4589063 -0.520781,1.1395313 z"
     id="path192" /><path
     d="m 67.633254,-4.7025002 h -0.05156 q -0.216563,-0.051563 -0.422813,-0.072188 -0.201094,-0.025781 -0.479531,-0.025781 -0.448594,0 -0.86625,0.2010937 -0.417656,0.1959375 -0.804375,0.5104688 V 0 h -0.969375 v -5.7595315 h 0.969375 v 0.8507813 q 0.5775,-0.4640625 1.015781,-0.6548438 0.443438,-0.1959375 0.902344,-0.1959375 0.252656,0 0.366094,0.015469 0.113437,0.010312 0.340312,0.046406 z"
     id="path194" /><path
     d="m 75.117363,0 h -0.969375 v -3.2793751 q 0,-0.3970313 -0.04641,-0.7425001 -0.04641,-0.350625 -0.170157,-0.5465625 -0.128906,-0.2165625 -0.37125,-0.3196875 -0.242343,-0.1082812 -0.629062,-0.1082812 -0.397031,0 -0.830156,0.1959375 -0.433125,0.1959375 -0.830157,0.5001562 V 0 H 70.301425 V -5.7595315 H 71.2708 v 0.639375 q 0.45375,-0.3764062 0.938438,-0.5878125 0.484687,-0.2114062 0.995156,-0.2114062 0.933281,0 1.423125,0.5620312 0.489844,0.5620313 0.489844,1.6190626 z"
     id="path196" /><path
     d="M 81.113049,0 H 80.14883 v -0.61359377 q -0.128906,0.0876562 -0.350625,0.24750001 -0.216562,0.1546875 -0.422812,0.24750001 Q 79.133049,0 78.818518,0.07734375 q -0.314532,0.08250001 -0.737344,0.08250001 -0.778594,0 -1.32,-0.51562502 -0.541407,-0.51562502 -0.541407,-1.31484384 0,-0.6548437 0.278438,-1.0570313 0.283594,-0.4073437 0.804375,-0.639375 0.525938,-0.2320312 1.263281,-0.3145312 0.737344,-0.0825 1.582969,-0.1237501 v -0.1495312 q 0,-0.33 -0.118594,-0.5465625 -0.113437,-0.2165625 -0.33,-0.3403125 -0.20625,-0.1185938 -0.495,-0.1598438 -0.28875,-0.04125 -0.603281,-0.04125 -0.381562,0 -0.850781,0.103125 -0.469219,0.097969 -0.969375,0.28875 h -0.05156 v -0.9848438 q 0.283594,-0.077344 0.819844,-0.1701562 0.53625,-0.092812 1.057031,-0.092812 0.608438,0 1.057032,0.103125 0.45375,0.097969 0.78375,0.3403125 0.324843,0.2371875 0.495,0.6135938 0.170156,0.3764062 0.170156,0.9332812 z M 80.14883,-1.4179688 v -1.6035938 q -0.443437,0.025781 -1.046719,0.077344 -0.598125,0.051563 -0.94875,0.1495313 -0.417656,0.1185937 -0.675468,0.37125 -0.257813,0.2475 -0.257813,0.6857813 0,0.495 0.299063,0.74765626 0.299062,0.24750001 0.912656,0.24750001 0.510469,0 0.933281,-0.19593751 0.422813,-0.20109376 0.78375,-0.47953126 z"
     id="path198" /><path
     d="m 87.715446,0 h -0.969375 v -3.2793751 q 0,-0.3970313 -0.04641,-0.7425001 -0.04641,-0.350625 -0.170156,-0.5465625 -0.128906,-0.2165625 -0.37125,-0.3196875 -0.242344,-0.1082812 -0.629063,-0.1082812 -0.397031,0 -0.830156,0.1959375 -0.433125,0.1959375 -0.830156,0.5001562 V 0 h -0.969375 v -5.7595315 h 0.969375 v 0.639375 q 0.45375,-0.3764062 0.938437,-0.5878125 0.484688,-0.2114062 0.995157,-0.2114062 0.933281,0 1.423125,0.5620312 0.489843,0.5620313 0.489843,1.6190626 z"
     id="path200" /><path
     d="m 93.90707,0 h -0.969375 v -0.60328127 q -0.417656,0.36093751 -0.871406,0.56203127 -0.45375,0.20109376 -0.984844,0.20109376 -1.03125,0 -1.639688,-0.79406254 -0.603281,-0.79406252 -0.603281,-2.20171882 0,-0.7321875 0.20625,-1.3045313 0.211406,-0.5723438 0.567188,-0.9745313 0.350625,-0.391875 0.814687,-0.598125 0.469219,-0.20625 0.969375,-0.20625 0.45375,0 0.804375,0.097969 0.350625,0.092812 0.737344,0.2939063 v -2.4956251 h 0.969375 z m -0.969375,-1.4179688 v -3.3051564 q -0.391875,-0.1753125 -0.70125,-0.2423437 -0.309375,-0.067031 -0.675469,-0.067031 -0.814687,0 -1.268437,0.5671875 -0.45375,0.5671875 -0.45375,1.6087501 0,1.0260938 0.350625,1.5623438 0.350625,0.53109377 1.124062,0.53109377 0.4125,0 0.835313,-0.18046876 0.422812,-0.18562501 0.788906,-0.47437501 z"
     id="path202" /><path
     d="m 100.40633,-2.8771876 q 0,1.4076563 -0.72187,2.22234382 -0.721875,0.81468754 -1.933594,0.81468754 -1.222031,0 -1.943906,-0.81468754 -0.716719,-0.81468752 -0.716719,-2.22234382 0,-1.4076563 0.716719,-2.2223439 0.721875,-0.8198437 1.943906,-0.8198437 1.211719,0 1.933594,0.8198437 0.72187,0.8146876 0.72187,2.2223439 z m -1.000308,0 q 0,-1.1189063 -0.438281,-1.6603126 -0.438281,-0.5465625 -1.216875,-0.5465625 -0.788906,0 -1.227188,0.5465625 -0.433125,0.5414063 -0.433125,1.6603126 0,1.0828125 0.438282,1.6448438 0.438281,0.55687502 1.222031,0.55687502 0.773437,0 1.211719,-0.55171872 0.443437,-0.5568751 0.443437,-1.6500001 z"
     id="path204" /></g>
</g></g><g
       id="g24"><g
         clip-path="url(#clipPath30)"
         id="g26" /></g></g></svg>
